<svg width="5541" height="1339" viewBox="0 0 5541 1339" fill="none" xmlns="http://www.w3.org/2000/svg">
<path d="M229.176 608.392C229.176 549.181 241.986 496.518 267.606 450.402C293.226 403.717 328.809 367.564 374.356 341.944C420.472 315.755 472.566 302.66 530.638 302.66C601.805 302.66 662.724 321.448 713.394 359.024C764.065 396.6 797.94 447.84 815.02 512.744H654.468C642.512 487.693 625.432 468.621 603.228 455.526C581.593 442.431 556.827 435.884 528.93 435.884C483.953 435.884 447.515 451.541 419.618 482.854C391.721 514.167 377.772 556.013 377.772 608.392C377.772 660.771 391.721 702.617 419.618 733.93C447.515 765.243 483.953 780.9 528.93 780.9C556.827 780.9 581.593 774.353 603.228 761.258C625.432 748.163 642.512 729.091 654.468 704.04H815.02C797.94 768.944 764.065 820.184 713.394 857.76C662.724 894.767 601.805 913.27 530.638 913.27C472.566 913.27 420.472 900.46 374.356 874.84C328.809 848.651 293.226 812.498 267.606 766.382C241.986 720.266 229.176 667.603 229.176 608.392ZM1050.48 511.89C1067.56 485.701 1088.91 465.205 1114.53 450.402C1140.15 435.03 1168.62 427.344 1199.93 427.344V581.918H1159.8C1123.36 581.918 1096.03 589.889 1077.81 605.83C1059.59 621.202 1050.48 648.53 1050.48 687.814V909H904.45V432.468H1050.48V511.89ZM1486.65 915.832C1439.97 915.832 1397.84 905.869 1360.26 885.942C1323.25 866.015 1293.93 837.549 1272.3 800.542C1251.23 763.535 1240.7 720.266 1240.7 670.734C1240.7 621.771 1251.52 578.787 1273.15 541.78C1294.79 504.204 1324.39 475.453 1361.97 455.526C1399.54 435.599 1441.67 425.636 1488.36 425.636C1535.04 425.636 1577.18 435.599 1614.75 455.526C1652.33 475.453 1681.93 504.204 1703.57 541.78C1725.2 578.787 1736.02 621.771 1736.02 670.734C1736.02 719.697 1724.92 762.966 1702.71 800.542C1681.08 837.549 1651.19 866.015 1613.04 885.942C1575.47 905.869 1533.34 915.832 1486.65 915.832ZM1486.65 789.44C1514.55 789.44 1538.18 779.192 1557.53 758.696C1577.46 738.2 1587.42 708.879 1587.42 670.734C1587.42 632.589 1577.74 603.268 1558.39 582.772C1539.6 562.276 1516.26 552.028 1488.36 552.028C1459.89 552.028 1436.27 562.276 1417.48 582.772C1398.69 602.699 1389.3 632.019 1389.3 670.734C1389.3 708.879 1398.4 738.2 1416.62 758.696C1435.41 779.192 1458.75 789.44 1486.65 789.44ZM2497.55 432.468L2368.59 909H2207.19L2132.03 599.852L2054.32 909H1893.77L1763.96 432.468H1909.99L1977.46 773.214L2057.74 432.468H2212.31L2293.44 771.506L2360.05 432.468H2497.55ZM2524.2 669.88C2524.2 620.917 2533.31 577.933 2551.53 540.926C2570.32 503.919 2595.65 475.453 2627.54 455.526C2659.42 435.599 2695 425.636 2734.29 425.636C2765.6 425.636 2794.07 432.183 2819.69 445.278C2845.87 458.373 2866.37 476.022 2881.17 498.226V277.04H3027.21V909H2881.17V840.68C2867.51 863.453 2847.87 881.672 2822.25 895.336C2797.2 909 2767.88 915.832 2734.29 915.832C2695 915.832 2659.42 905.869 2627.54 885.942C2595.65 865.446 2570.32 836.695 2551.53 799.688C2533.31 762.112 2524.2 718.843 2524.2 669.88ZM2881.17 670.734C2881.17 634.297 2870.93 605.545 2850.43 584.48C2830.5 563.415 2806.02 552.882 2776.99 552.882C2747.95 552.882 2723.18 563.415 2702.69 584.48C2682.76 604.976 2672.8 633.443 2672.8 669.88C2672.8 706.317 2682.76 735.353 2702.69 756.988C2723.18 778.053 2747.95 788.586 2776.99 788.586C2806.02 788.586 2830.5 778.053 2850.43 756.988C2870.93 735.923 2881.17 707.171 2881.17 670.734Z" fill="#313A42"/>
<path d="M3349.77 914.978C3305.93 914.978 3266.65 907.861 3231.92 893.628C3197.19 879.395 3169.29 858.329 3148.23 830.432C3127.73 802.535 3116.91 768.944 3115.78 729.66H3271.2C3273.48 751.864 3281.17 768.944 3294.26 780.9C3307.36 792.287 3324.44 797.98 3345.5 797.98C3367.14 797.98 3384.22 793.141 3396.74 783.462C3409.27 773.214 3415.53 759.265 3415.53 741.616C3415.53 726.813 3410.41 714.573 3400.16 704.894C3390.48 695.215 3378.24 687.245 3363.44 680.982C3349.2 674.719 3328.71 667.603 3301.95 659.632C3263.23 647.676 3231.64 635.72 3207.15 623.764C3182.67 611.808 3161.61 594.159 3143.96 570.816C3126.31 547.473 3117.48 517.014 3117.48 479.438C3117.48 423.643 3137.7 380.089 3178.12 348.776C3218.54 316.893 3271.2 300.952 3336.11 300.952C3402.15 300.952 3455.38 316.893 3495.81 348.776C3536.23 380.089 3557.86 423.928 3560.71 480.292H3402.72C3401.58 460.935 3394.46 445.847 3381.37 435.03C3368.28 423.643 3351.48 417.95 3330.98 417.95C3313.33 417.95 3299.1 422.789 3288.28 432.468C3277.47 441.577 3272.06 454.957 3272.06 472.606C3272.06 491.963 3281.17 507.051 3299.39 517.868C3317.6 528.685 3346.07 540.357 3384.79 552.882C3423.5 565.977 3454.81 578.502 3478.73 590.458C3503.21 602.414 3524.27 619.779 3541.92 642.552C3559.57 665.325 3568.4 694.646 3568.4 730.514C3568.4 764.674 3559.57 795.703 3541.92 823.6C3524.84 851.497 3499.79 873.701 3466.77 890.212C3433.75 906.723 3394.75 914.978 3349.77 914.978ZM3948.63 427.344C4004.42 427.344 4048.83 445.563 4081.85 482C4115.44 517.868 4132.24 567.4 4132.24 630.596V909H3987.06V650.238C3987.06 618.355 3978.8 593.589 3962.29 575.94C3945.78 558.291 3923.58 549.466 3895.68 549.466C3867.78 549.466 3845.58 558.291 3829.07 575.94C3812.56 593.589 3804.3 618.355 3804.3 650.238V909H3658.27V432.468H3804.3V495.664C3819.1 474.599 3839.03 458.088 3864.08 446.132C3889.13 433.607 3917.31 427.344 3948.63 427.344ZM4204.68 669.88C4204.68 620.917 4213.79 577.933 4232.01 540.926C4250.8 503.919 4276.13 475.453 4308.01 455.526C4339.9 435.599 4375.48 425.636 4414.76 425.636C4448.35 425.636 4477.67 432.468 4502.73 446.132C4528.35 459.796 4547.99 477.73 4561.65 499.934V432.468H4707.69V909H4561.65V841.534C4547.42 863.738 4527.49 881.672 4501.87 895.336C4476.82 909 4447.5 915.832 4413.91 915.832C4375.19 915.832 4339.9 905.869 4308.01 885.942C4276.13 865.446 4250.8 836.695 4232.01 799.688C4213.79 762.112 4204.68 718.843 4204.68 669.88ZM4561.65 670.734C4561.65 634.297 4551.4 605.545 4530.91 584.48C4510.98 563.415 4486.5 552.882 4457.46 552.882C4428.43 552.882 4403.66 563.415 4383.17 584.48C4363.24 604.976 4353.28 633.443 4353.28 669.88C4353.28 706.317 4363.24 735.353 4383.17 756.988C4403.66 778.053 4428.43 788.586 4457.46 788.586C4486.5 788.586 4510.98 778.053 4530.91 756.988C4551.4 735.923 4561.65 707.171 4561.65 670.734ZM4959.37 499.934C4973.6 477.73 4993.24 459.796 5018.29 446.132C5043.35 432.468 5072.67 425.636 5106.26 425.636C5145.54 425.636 5181.12 435.599 5213.01 455.526C5244.89 475.453 5269.94 503.919 5288.16 540.926C5306.95 577.933 5316.34 620.917 5316.34 669.88C5316.34 718.843 5306.95 762.112 5288.16 799.688C5269.94 836.695 5244.89 865.446 5213.01 885.942C5181.12 905.869 5145.54 915.832 5106.26 915.832C5073.24 915.832 5043.91 909 5018.29 895.336C4993.24 881.672 4973.6 864.023 4959.37 842.388V1136.16H4813.33V432.468H4959.37V499.934ZM5167.74 669.88C5167.74 633.443 5157.5 604.976 5137 584.48C5117.07 563.415 5092.31 552.882 5062.7 552.882C5033.67 552.882 5008.9 563.415 4988.4 584.48C4968.48 605.545 4958.51 634.297 4958.51 670.734C4958.51 707.171 4968.48 735.923 4988.4 756.988C5008.9 778.053 5033.67 788.586 5062.7 788.586C5091.74 788.586 5116.5 778.053 5137 756.988C5157.5 735.353 5167.74 706.317 5167.74 669.88Z" fill="#AEDA2A"/>
<path d="M5264.69 1137.11V1154.74H5235.68V1246H5213.84V1154.74H5184.82V1137.11H5264.69ZM5399.34 1137.11V1246H5377.5V1175.18L5348.33 1246H5331.8L5302.47 1175.18V1246H5280.63V1137.11H5305.43L5340.06 1218.08L5374.7 1137.11H5399.34Z" fill="#313A42"/>
</svg>
